<svg xmlns="http://www.w3.org/2000/svg" version="1.1" xmlns:xlink="http://www.w3.org/1999/xlink" width="2000" height="164" viewBox="0 0 2000 164"><svg xml:space="preserve" width="2000" height="164" data-version="2" data-id="lg_xUIIK7RfI44KrOzVqC" viewBox="0 0 438 164" x="0" y="0"><rect width="100%" height="100%" fill="transparent"></rect><path fill="#3d3d3d" d="M43.98 129.878H33.29v-82H4.54v-9.37H72.6v9.37H43.98Z"></path><rect width="68.06" height="91.37" x="-34.03" y="-45.69" fill="none" rx="0" ry="0" transform="translate(39.07 84.7)"></rect><path fill="#3d3d3d" d="M111.23 60.128q8.75 0 15 3.88 6.25 3.87 9.56 10.84 3.31 6.97 3.31 16.28v6.44H91.79q.19 12.06 6 18.37 5.81 6.32 16.37 6.32 6.5 0 11.5-1.19t10.38-3.5v9.12q-5.19 2.32-10.28 3.38-5.1 1.06-12.03 1.06-9.88 0-17.22-4.03-7.35-4.03-11.41-11.84-4.06-7.82-4.06-19.13 0-11.06 3.72-19.15 3.72-8.1 10.5-12.47 6.78-4.38 15.97-4.38m-.13 8.5q-8.31 0-13.25 5.44-4.94 5.44-5.87 15.19h36.25q-.07-6.13-1.91-10.78-1.84-4.66-5.59-7.25-3.75-2.6-9.63-2.6"></path><rect width="58.06" height="71" x="-29.03" y="-35.5" fill="none" rx="0" ry="0" transform="translate(110.57 96.13)"></rect><path fill="#7d4d27" d="m182.887 16.154-32.578 41.699c-2.136 2.734-1.687 6.387 1.047 8.524 2.734 2.136 6.387 1.687 8.523-1.047l28.84-36.914 11.62 9.079-28.876 36.61c-2.136 2.734-1.688 6.387 1.047 8.523 2.43 2.174 6.387 1.688 8.219-1.01l28.84-36.913 11.62 9.079-28.839 36.914c-2.136 2.734-1.688 6.387 1.047 8.523 2.734 2.137 6.387 1.688 8.523-1.046l28.84-36.914 11.62 9.079-28.839 36.914c-2.136 2.734-1.687 6.387 1.047 8.523s6.387 1.688 8.524-1.046l28.839-36.914 11.621 9.079-28.84 36.914c-2.136 2.734-1.687 6.387 1.047 8.523 2.735 2.136 6.388 1.688 8.524-1.047l28.84-36.914 11.62 9.08-28.839 36.913c-2.136 2.735-1.688 6.388 1.047 8.524 2.734 2.136 6.387 1.688 8.523-1.047l32.578-41.699c1.068-1.367 1.49-2.964 1.303-4.486-.187-1.522-.982-2.97-2.35-4.037l-42.382-33.112-21.192-16.556-42.345-32.807c-2.43-2.174-6.387-1.688-8.22 1.009"></path><path fill="#3d3d3d" d="M341.46 38.508q17.68 0 25.84 6.9 8.16 6.91 8.16 19.78 0 5.82-1.91 11.04-1.91 5.21-6.16 9.18-4.25 3.97-11.15 6.25-6.91 2.28-16.91 2.28h-11.12v35.94h-10.63v-91.37Zm-1 9.06h-12.25v37.25h9.93q8.75 0 14.6-1.88 5.84-1.87 8.78-6.09 2.94-4.22 2.94-11.22 0-9.12-5.82-13.59-5.81-4.47-18.18-4.47"></path><rect width="57.88" height="91.37" x="-28.94" y="-45.69" fill="none" rx="0" ry="0" transform="translate(347.02 84.7)"></rect><path fill="#3d3d3d" d="M424.14 60.128q2.07 0 4.32.22 2.25.22 4 .59l-1.32 9.63q-1.68-.44-3.75-.69-2.06-.25-3.87-.25-4.13 0-7.78 1.66-3.66 1.65-6.41 4.75-2.75 3.09-4.31 7.44-1.56 4.34-1.56 9.65v36.75h-10.44v-68.5h8.62l1.13 12.63h.44q2.12-3.82 5.12-6.97 3-3.16 6.97-5.03 3.97-1.88 8.84-1.88"></path><rect width="39.44" height="69.75" x="-19.72" y="-34.88" fill="none" rx="0" ry="0" transform="translate(413.24 95.5)"></rect></svg></svg>